<svg xmlns="http://www.w3.org/2000/svg" viewBox="0 0 512 512" fill="none" role="img" aria-label="Voxium">
  <rect width="512" height="512" rx="96" fill="#0a0a0a"/>
  <circle cx="256" cy="256" r="220" stroke="#c9a84c" stroke-opacity="0.18" stroke-width="3"/>
  <circle cx="256" cy="256" r="196" stroke="#c9a84c" stroke-opacity="0.08" stroke-width="1.5"/>
  <path d="M156 128c32 64 48 112 48 160s-16 96-48 160" stroke="url(#vox-gold-lg)" stroke-width="18" stroke-linecap="round" fill="none"/>
  <path d="M356 128c-32 64-48 112-48 160s16 96 48 160" stroke="url(#vox-gold-lg)" stroke-width="18" stroke-linecap="round" fill="none"/>
  <path d="M148 352 L256 176 L364 352 Z" fill="url(#vox-gold-lg)" stroke="#e8c97a" stroke-width="4" stroke-linejoin="round"/>
  <path d="M256 176 L256 352" stroke="#0a0a0a" stroke-width="6" stroke-linecap="round" opacity="0.35"/>
  <circle cx="256" cy="272" r="16" fill="#0a0a0a" stroke="#e8c97a" stroke-width="3"/>
  <path d="M256 120 C228 168 212 208 256 256 C300 208 284 168 256 120 Z" fill="url(#vox-glow)" opacity="0.35"/>
  <defs>
    <linearGradient id="vox-gold-lg" x1="148" y1="128" x2="364" y2="352" gradientUnits="userSpaceOnUse">
      <stop stop-color="#e8c97a"/>
      <stop offset="0.45" stop-color="#c9a84c"/>
      <stop offset="1" stop-color="#a07830"/>
    </linearGradient>
    <radialGradient id="vox-glow" cx="0" cy="0" r="1" gradientUnits="userSpaceOnUse" gradientTransform="translate(256 188) rotate(90) scale(80)">
      <stop stop-color="#c9a84c"/>
      <stop offset="1" stop-color="#c9a84c" stop-opacity="0"/>
    </radialGradient>
  </defs>
</svg>
